<?xml version="1.0" standalone="no"?>
<!DOCTYPE svg PUBLIC "-//W3C//DTD SVG 20010904//EN"
 "http://www.w3.org/TR/2001/REC-SVG-20010904/DTD/svg10.dtd">
<svg version="1.0" xmlns="http://www.w3.org/2000/svg"
 width="257.000000pt" height="288.000000pt" viewBox="0 0 257.000000 288.000000"
 preserveAspectRatio="xMidYMid meet">

<g transform="translate(0.000000,288.000000) scale(0.100000,-0.100000)"
fill="#000000" stroke="none">
<path d="M1243 2023 c-41 -88 -81 -144 -253 -363 -182 -230 -234 -405 -180
-614 25 -99 62 -166 128 -236 l54 -55 -40 50 c-136 171 -161 408 -63 603 38
74 93 149 226 302 59 69 125 152 147 184 21 33 40 62 42 64 2 2 16 -17 31 -42
27 -46 80 -116 238 -312 144 -179 194 -301 185 -456 -6 -102 -47 -187 -123
-257 -78 -71 -145 -95 -265 -96 -84 0 -102 3 -155 28 -101 47 -189 150 -209
244 -10 43 11 106 46 140 27 25 36 28 102 28 64 0 77 -3 109 -27 45 -35 52
-35 93 1 65 58 171 50 220 -15 77 -100 11 -257 -128 -305 -29 -10 -46 -18 -37
-19 31 0 101 30 139 60 50 40 90 120 90 179 0 59 -33 116 -86 154 -54 37 -130
40 -199 7 l-46 -22 -51 27 c-108 59 -237 27 -295 -73 -23 -39 -28 -58 -28
-117 0 -60 5 -79 34 -132 66 -122 199 -219 335 -244 84 -15 199 2 284 43 121
57 222 181 251 309 19 83 13 211 -14 296 -35 110 -81 182 -234 367 -164 198
-167 202 -217 301 -32 63 -46 81 -65 83 -21 3 -29 -7 -66 -85z"/>
</g>
</svg>
